<svg width="44" height="44" viewBox="0 0 44 44" fill="none" xmlns="http://www.w3.org/2000/svg">
<path d="M44 22C44 26.3512 42.7097 30.6047 40.2923 34.2226C37.8749 37.8405 34.439 40.6603 30.419 42.3254C26.3991 43.9905 21.9756 44.4262 17.708 43.5773C13.4404 42.7284 9.52041 40.6331 6.44365 37.5564C3.3669 34.4796 1.2716 30.5596 0.422724 26.292C-0.426151 22.0244 0.00952239 17.601 1.67465 13.581C3.33978 9.56102 6.15957 6.12509 9.77746 3.7077C13.3953 1.29031 17.6488 3.04657e-05 22 3.05176e-05V4.18311C18.4761 4.18311 15.0314 5.22805 12.1014 7.1858C9.17147 9.14355 6.88783 11.9262 5.53931 15.1818C4.19079 18.4374 3.83796 22.0198 4.52543 25.4759C5.2129 28.9321 6.90979 32.1068 9.40153 34.5985C11.8933 37.0902 15.0679 38.7871 18.5241 39.4746C21.9802 40.1621 25.5626 39.8092 28.8182 38.4607C32.0739 37.1122 34.8565 34.8286 36.8142 31.8986C38.772 28.9686 39.8169 25.5239 39.8169 22H44Z" fill="#BBEFC0"/>
</svg>
