<svg width="25" height="21" viewBox="0 0 25 21" fill="none" xmlns="http://www.w3.org/2000/svg">
<path fill-rule="evenodd" clip-rule="evenodd" d="M23.9027 11.6314C24.4518 11.5558 24.875 11.0781 24.875 10.5002C24.875 9.86962 24.3713 9.35846 23.75 9.35846L3.97534 9.35846L11.1188 2.13816L11.228 2.01034C11.5557 1.56407 11.5207 0.92973 11.1221 0.523566C10.6837 0.0767867 9.97135 0.07529 9.53111 0.520223L0.477474 9.6702C0.273613 9.8657 0.141748 10.1377 0.126486 10.441C0.110434 10.7535 0.220329 11.0715 0.456171 11.3098L9.53117 20.4798L9.65758 20.5901C10.0987 20.9208 10.7236 20.8826 11.1222 20.4764C11.5605 20.0295 11.559 19.3067 11.1187 18.8618L3.97356 11.6418L23.75 11.6418L23.9027 11.6314Z" fill="#2E1788"/>
</svg>
