<svg width="18" height="21" viewBox="0 0 18 21" fill="none" xmlns="http://www.w3.org/2000/svg">
<path fill-rule="evenodd" clip-rule="evenodd" d="M11.6065 0.0474596C11.5634 0.0396359 11.5191 0.035553 11.4738 0.035553C11.4285 0.035553 11.3842 0.0396359 11.3411 0.0474596H5.08449C2.59719 0.0474596 0.500488 2.10096 0.500488 4.60563V15.6464C0.500488 18.2743 2.48593 20.2514 5.08449 20.2514H13.0725C15.5411 20.2514 17.5525 18.1703 17.5525 15.6464V6.17998C17.5525 5.98291 17.4776 5.79348 17.3435 5.65134L12.2775 0.28208C12.136 0.132188 11.9407 0.0474596 11.7365 0.0474596H11.6065ZM10.7238 1.57316L5.08449 1.57397C3.41302 1.57397 2.00049 2.9574 2.00049 4.60563V15.6464C2.00049 17.4237 3.30715 18.7249 5.08449 18.7249H13.0725C14.707 18.7249 16.0525 17.3328 16.0525 15.6464L16.0522 7.14207L15.1757 7.14511C14.8422 7.1447 14.4629 7.14398 14.0412 7.143C12.2709 7.13919 10.8265 5.7279 10.729 3.95097L10.7238 3.75923V1.57316ZM15.2312 5.61632L14.0445 5.61649C13.0381 5.61433 12.2238 4.78359 12.2238 3.75923V2.42897L15.2312 5.61632ZM11.2946 10.3792C11.7088 10.3792 12.0446 10.7209 12.0446 11.1425C12.0446 11.5289 11.7624 11.8482 11.3964 11.8988L11.2946 11.9057H9.59389V13.637C9.59389 14.0585 9.2581 14.4003 8.84389 14.4003C8.46419 14.4003 8.1504 14.1131 8.10074 13.7406L8.09389 13.637V11.9057H6.39359C5.97937 11.9057 5.64359 11.564 5.64359 11.1425C5.64359 10.7561 5.92574 10.4367 6.29182 10.3862L6.39359 10.3792H8.09389V8.64937C8.09389 8.22783 8.42968 7.88611 8.84389 7.88611C9.22358 7.88611 9.53738 8.17325 9.58704 8.5458L9.59389 8.64937V10.3792H11.2946Z" fill="#0A5612"/>
</svg>
