<svg width="20" height="17" viewBox="0 0 20 17" fill="none" xmlns="http://www.w3.org/2000/svg">
<path fill-rule="evenodd" clip-rule="evenodd" d="M10.573 0.579346H4.304C1.73889 0.579346 0 2.32882 0 4.84138V11.9804C0 14.4929 1.73889 16.2424 4.304 16.2424H10.573C12.9912 16.2424 14.6808 14.6798 14.861 12.3914L17.5079 13.4924L17.6405 13.5416C18.7923 13.92 19.9997 13.0487 19.9997 11.7896V5.03321L19.9944 4.8897C19.9034 3.6617 18.6537 2.85358 17.5083 3.3292L14.8611 4.43034C14.6814 2.14033 12.9951 0.579346 10.573 0.579346ZM13.377 5.53292C13.3763 5.55133 13.3763 5.56982 13.377 5.58836V11.2334C13.3763 11.2519 13.3763 11.2704 13.377 11.2888V11.9804C13.377 13.6431 12.3092 14.7159 10.573 14.7159H4.304C2.5635 14.7159 1.5 13.6459 1.5 11.9804V4.84138C1.5 3.17583 2.5635 2.10586 4.304 2.10586H10.573C12.3129 2.10586 13.377 3.17623 13.377 4.84138V5.53292ZM14.877 10.7489V6.07283L18.0755 4.74241L18.1433 4.72291C18.3243 4.69301 18.4997 4.83497 18.4997 5.03321V11.7896L18.4918 11.8609C18.4507 12.0429 18.2556 12.1541 18.0751 12.0792L14.877 10.7489Z" fill="#0A5612"/>
</svg>
