<svg width="20" height="21" viewBox="0 0 20 21" fill="none" xmlns="http://www.w3.org/2000/svg">
<path fill-rule="evenodd" clip-rule="evenodd" d="M1.5 6.53726C1.5 5.24278 2.54 4.18847 3.817 4.18847H16.183C17.455 4.18847 18.49 5.24278 18.49 6.53726V9.64829C16.847 10.6873 14.953 11.415 12.959 11.7722C12.411 10.6456 11.271 9.90678 9.99 9.90678C8.72 9.90678 7.575 10.6426 7.011 11.763C5.029 11.4079 3.142 10.6833 1.5 9.64829V6.53726ZM8.704 1.56185H11.286C11.958 1.56185 12.521 2.031 12.688 2.66196H7.301C7.469 2.031 8.031 1.56185 8.704 1.56185ZM7.384 13.3679C7.764 13.4218 8.111 13.1837 8.211 12.8133C8.434 11.9869 9.149 11.4333 9.99 11.4333C10.822 11.4333 11.544 11.9991 11.746 12.8092C11.832 13.1511 12.134 13.3852 12.473 13.3852C12.507 13.3852 12.542 13.3832 12.576 13.3781C15.145 13.0158 17.592 12.0907 19.654 10.7026C19.864 10.5601 19.99 10.322 19.99 10.0655V6.53726C19.99 4.40015 18.282 2.66196 16.183 2.66196H14.206C14.019 1.18531 12.788 0.0353394 11.286 0.0353394H8.704C7.202 0.0353394 5.972 1.18429 5.784 2.66196H3.817C1.712 2.66196 0 4.40015 0 6.53726V10.0655C0 10.322 0.126 10.5611 0.337 10.7026C2.396 12.0846 4.833 13.0056 7.384 13.3679ZM9.2451 13.656V14.9729C9.2451 15.3942 9.5811 15.7361 9.9951 15.7361C10.4091 15.7361 10.7451 15.3942 10.7451 14.9729V13.656C10.7451 13.2347 10.4091 12.8927 9.9951 12.8927C9.5811 12.8927 9.2451 13.2347 9.2451 13.656ZM18.5086 13.6894C18.5386 13.2986 18.8516 12.9872 19.2446 12.9872C19.6576 12.9872 19.9926 13.3281 19.9926 13.7484C19.9926 13.7549 19.9807 13.9116 19.963 14.1443C19.9198 14.7115 19.8423 15.73 19.8196 16.1226C19.7626 17.0772 19.3986 18.0511 18.8456 18.7289C18.0756 19.6733 17.0946 20.115 15.7606 20.118C15.1416 20.1191 12.5836 20.1201 10.0246 20.1201C7.4666 20.1201 4.9076 20.1191 4.2896 20.118C2.9546 20.115 1.9736 19.6733 1.2036 18.7279C0.6516 18.0511 0.2866 17.0772 0.2306 16.1226C0.207537 15.7357 0.131726 14.7409 0.0881588 14.1693C0.0693861 13.9229 0.0566001 13.7551 0.0566001 13.7484C0.0566001 13.3281 0.3916 12.9872 0.8046 12.9872C1.1976 12.9872 1.5106 13.2986 1.5406 13.6894C1.5406 13.6894 1.6946 15.4693 1.7276 16.0311C1.7646 16.6528 2.0126 17.3296 2.3586 17.753C2.8486 18.3544 3.3906 18.5895 4.2916 18.5915C5.5276 18.5936 14.5206 18.5936 15.7576 18.5915C16.6596 18.5895 17.2016 18.3544 17.6906 17.754C18.0376 17.3296 18.2856 16.6528 18.3226 16.0311C18.3546 15.4693 18.5086 13.6894 18.5086 13.6894Z" fill="#292929"/>
</svg>
